<svg width="60" height="60" viewBox="0 0 60 60" fill="none" xmlns="http://www.w3.org/2000/svg">
<circle cx="30" cy="30" r="30" fill="#F8F8F8"/>
<path d="M41.9746 36.5504C41.8482 36.5504 39.0108 36.0367 39.0108 27.632C39.0108 21.6958 35.6116 18 29.993 18C24.3744 18 20.9751 21.6958 20.9751 27.632C20.9751 36.1937 18.0394 36.5504 18.0535 36.5504C17.7741 36.5504 17.5061 36.6632 17.3086 36.8639C17.111 37.0646 17 37.3368 17 37.6207C17 37.9045 17.111 38.1767 17.3086 38.3774C17.5061 38.5781 17.7741 38.6909 18.0535 38.6909H24.8379C25.0724 39.9048 25.7147 40.9982 26.6551 41.7842C27.5954 42.5702 28.7753 43 29.993 43C31.2107 43 32.3906 42.5702 33.3309 41.7842C34.2712 40.9982 34.9135 39.9048 35.148 38.6909H41.9465C42.2259 38.6909 42.4939 38.5781 42.6914 38.3774C42.889 38.1767 43 37.9045 43 37.6207C43 37.3368 42.889 37.0646 42.6914 36.8639C42.4939 36.6632 42.2259 36.5504 41.9465 36.5504H41.9746ZM29.993 40.8313C29.3416 40.8301 28.7067 40.6235 28.1759 40.2401C27.645 39.8567 27.2443 39.3154 27.0292 38.6909H32.9568C32.7416 39.3154 32.3409 39.8567 31.8101 40.2401C31.2792 40.6235 30.6443 40.8301 29.993 40.8313ZM21.228 36.5504C22.2393 34.9951 23.0821 32.2696 23.0821 27.632C23.0821 22.9944 25.6105 20.1404 29.993 20.1404C34.3755 20.1404 36.9038 22.8659 36.9038 27.632C36.9038 32.398 37.7466 34.9951 38.758 36.5504H21.228Z" fill="black"/>
</svg>
