<svg width="24" height="22" viewBox="0 0 24 22" fill="none" xmlns="http://www.w3.org/2000/svg">
<path d="M12.1167 18.6417L12 18.7583L11.8717 18.6417C6.33001 13.6133 2.66668 10.2883 2.66668 6.91667C2.66668 4.58333 4.41668 2.83333 6.75001 2.83333C8.54668 2.83333 10.2967 4 10.915 5.58667H13.085C13.7033 4 15.4533 2.83333 17.25 2.83333C19.5833 2.83333 21.3333 4.58333 21.3333 6.91667C21.3333 10.2883 17.67 13.6133 12.1167 18.6417ZM17.25 0.5C15.22 0.5 13.2717 1.445 12 2.92667C10.7283 1.445 8.78001 0.5 6.75001 0.5C3.15668 0.5 0.333344 3.31167 0.333344 6.91667C0.333344 11.315 4.30001 14.92 10.3083 20.3683L12 21.9083L13.6917 20.3683C19.7 14.92 23.6667 11.315 23.6667 6.91667C23.6667 3.31167 20.8433 0.5 17.25 0.5Z" fill="white"/>
</svg>
