<svg width="26" height="25" viewBox="0 0 26 25" fill="none" xmlns="http://www.w3.org/2000/svg">
<path d="M8.83332 21.8751H4.66666C4.39039 21.8751 4.12544 21.7653 3.93009 21.57C3.73474 21.3746 3.62499 21.1097 3.62499 20.8334V16.6667C3.62499 16.3905 3.51524 16.1255 3.31989 15.9302C3.12454 15.7348 2.85959 15.6251 2.58332 15.6251C2.30706 15.6251 2.0421 15.7348 1.84675 15.9302C1.6514 16.1255 1.54166 16.3905 1.54166 16.6667V20.8334C1.54166 21.6622 1.8709 22.4571 2.45695 23.0431C3.043 23.6292 3.83785 23.9584 4.66666 23.9584H8.83332C9.10959 23.9584 9.37454 23.8487 9.56989 23.6533C9.76524 23.458 9.87499 23.193 9.87499 22.9167C9.87499 22.6405 9.76524 22.3755 9.56989 22.1802C9.37454 21.9848 9.10959 21.8751 8.83332 21.8751ZM23.4167 15.6251C23.1404 15.6251 22.8754 15.7348 22.6801 15.9302C22.4847 16.1255 22.375 16.3905 22.375 16.6667V20.8334C22.375 21.1097 22.2652 21.3746 22.0699 21.57C21.8745 21.7653 21.6096 21.8751 21.3333 21.8751H17.1667C16.8904 21.8751 16.6254 21.9848 16.4301 22.1802C16.2347 22.3755 16.125 22.6405 16.125 22.9167C16.125 23.193 16.2347 23.458 16.4301 23.6533C16.6254 23.8487 16.8904 23.9584 17.1667 23.9584H21.3333C22.1621 23.9584 22.957 23.6292 23.543 23.0431C24.1291 22.4571 24.4583 21.6622 24.4583 20.8334V16.6667C24.4583 16.3905 24.3486 16.1255 24.1532 15.9302C23.9579 15.7348 23.6929 15.6251 23.4167 15.6251ZM21.3333 1.04175H17.1667C16.8904 1.04175 16.6254 1.15149 16.4301 1.34685C16.2347 1.5422 16.125 1.80715 16.125 2.08341C16.125 2.35968 16.2347 2.62463 16.4301 2.81998C16.6254 3.01533 16.8904 3.12508 17.1667 3.12508H21.3333C21.6096 3.12508 21.8745 3.23483 22.0699 3.43018C22.2652 3.62553 22.375 3.89048 22.375 4.16675V8.33341C22.375 8.60968 22.4847 8.87463 22.6801 9.06998C22.8754 9.26533 23.1404 9.37508 23.4167 9.37508C23.6929 9.37508 23.9579 9.26533 24.1532 9.06998C24.3486 8.87463 24.4583 8.60968 24.4583 8.33341V4.16675C24.4583 3.33795 24.1291 2.54309 23.543 1.95704C22.957 1.37099 22.1621 1.04175 21.3333 1.04175ZM2.58332 9.37508C2.85959 9.37508 3.12454 9.26533 3.31989 9.06998C3.51524 8.87463 3.62499 8.60968 3.62499 8.33341V4.16675C3.62499 3.89048 3.73474 3.62553 3.93009 3.43018C4.12544 3.23483 4.39039 3.12508 4.66666 3.12508H8.83332C9.10959 3.12508 9.37454 3.01533 9.56989 2.81998C9.76524 2.62463 9.87499 2.35968 9.87499 2.08341C9.87499 1.80715 9.76524 1.5422 9.56989 1.34685C9.37454 1.15149 9.10959 1.04175 8.83332 1.04175H4.66666C3.83785 1.04175 3.043 1.37099 2.45695 1.95704C1.8709 2.54309 1.54166 3.33795 1.54166 4.16675V8.33341C1.54166 8.60968 1.6514 8.87463 1.84675 9.06998C2.0421 9.26533 2.30706 9.37508 2.58332 9.37508ZM10.9167 5.20841H6.74999C6.47372 5.20841 6.20877 5.31816 6.01342 5.51351C5.81807 5.70886 5.70832 5.97381 5.70832 6.25008V10.4167C5.70832 10.693 5.81807 10.958 6.01342 11.1533C6.20877 11.3487 6.47372 11.4584 6.74999 11.4584H10.9167C11.1929 11.4584 11.4579 11.3487 11.6532 11.1533C11.8486 10.958 11.9583 10.693 11.9583 10.4167V6.25008C11.9583 5.97381 11.8486 5.70886 11.6532 5.51351C11.4579 5.31816 11.1929 5.20841 10.9167 5.20841ZM9.87499 9.37508H7.79166V7.29175H9.87499V9.37508ZM15.0833 11.4584H19.25C19.5263 11.4584 19.7912 11.3487 19.9866 11.1533C20.1819 10.958 20.2917 10.693 20.2917 10.4167V6.25008C20.2917 5.97381 20.1819 5.70886 19.9866 5.51351C19.7912 5.31816 19.5263 5.20841 19.25 5.20841H15.0833C14.8071 5.20841 14.5421 5.31816 14.3468 5.51351C14.1514 5.70886 14.0417 5.97381 14.0417 6.25008V10.4167C14.0417 10.693 14.1514 10.958 14.3468 11.1533C14.5421 11.3487 14.8071 11.4584 15.0833 11.4584ZM16.125 7.29175H18.2083V9.37508H16.125V7.29175ZM10.9167 13.5417H6.74999C6.47372 13.5417 6.20877 13.6515 6.01342 13.8468C5.81807 14.0422 5.70832 14.3071 5.70832 14.5834V18.7501C5.70832 19.0263 5.81807 19.2913 6.01342 19.4867C6.20877 19.682 6.47372 19.7917 6.74999 19.7917H10.9167C11.1929 19.7917 11.4579 19.682 11.6532 19.4867C11.8486 19.2913 11.9583 19.0263 11.9583 18.7501V14.5834C11.9583 14.3071 11.8486 14.0422 11.6532 13.8468C11.4579 13.6515 11.1929 13.5417 10.9167 13.5417ZM9.87499 17.7084H7.79166V15.6251H9.87499V17.7084ZM15.0833 16.6667C15.3596 16.6667 15.6245 16.557 15.8199 16.3617C16.0152 16.1663 16.125 15.9013 16.125 15.6251C16.4013 15.6251 16.6662 15.5153 16.8616 15.32C17.0569 15.1246 17.1667 14.8597 17.1667 14.5834C17.1667 14.3071 17.0569 14.0422 16.8616 13.8468C16.6662 13.6515 16.4013 13.5417 16.125 13.5417H15.0833C14.8071 13.5417 14.5421 13.6515 14.3468 13.8468C14.1514 14.0422 14.0417 14.3071 14.0417 14.5834V15.6251C14.0417 15.9013 14.1514 16.1663 14.3468 16.3617C14.5421 16.557 14.8071 16.6667 15.0833 16.6667ZM19.25 13.5417C18.9737 13.5417 18.7088 13.6515 18.5134 13.8468C18.3181 14.0422 18.2083 14.3071 18.2083 14.5834V17.7084C17.9321 17.7084 17.6671 17.8182 17.4718 18.0135C17.2764 18.2089 17.1667 18.4738 17.1667 18.7501C17.1667 19.0263 17.2764 19.2913 17.4718 19.4867C17.6671 19.682 17.9321 19.7917 18.2083 19.7917H19.25C19.5263 19.7917 19.7912 19.682 19.9866 19.4867C20.1819 19.2913 20.2917 19.0263 20.2917 18.7501V14.5834C20.2917 14.3071 20.1819 14.0422 19.9866 13.8468C19.7912 13.6515 19.5263 13.5417 19.25 13.5417ZM15.0833 17.7084C14.8773 17.7084 14.6759 17.7695 14.5046 17.884C14.3333 17.9984 14.1998 18.1611 14.1209 18.3515C14.0421 18.5418 14.0215 18.7512 14.0617 18.9533C14.1019 19.1554 14.2011 19.341 14.3468 19.4867C14.4924 19.6323 14.678 19.7315 14.8801 19.7717C15.0822 19.8119 15.2916 19.7913 15.482 19.7125C15.6723 19.6336 15.835 19.5001 15.9494 19.3288C16.0639 19.1575 16.125 18.9561 16.125 18.7501C16.125 18.4738 16.0152 18.2089 15.8199 18.0135C15.6245 17.8182 15.3596 17.7084 15.0833 17.7084Z" fill="white"/>
</svg>
