<svg width="60" height="60" viewBox="0 0 60 60" fill="none" xmlns="http://www.w3.org/2000/svg">
<circle cx="30" cy="30" r="30" fill="#F8F8F8"/>
<path d="M30.2643 31.5C26.0328 31.5 17.5857 33.8275 17.5857 38.5V42H42.9428V38.5C42.9428 33.8275 34.4957 31.5 30.2643 31.5ZM30.2643 28C31.9455 28 33.558 27.2625 34.7468 25.9497C35.9357 24.637 36.6035 22.8565 36.6035 21C36.6035 19.1435 35.9357 17.363 34.7468 16.0503C33.558 14.7375 31.9455 14 30.2643 14C28.583 14 26.9706 14.7375 25.7817 16.0503C24.5929 17.363 23.925 19.1435 23.925 21C23.925 22.8565 24.5929 24.637 25.7817 25.9497C26.9706 27.2625 28.583 28 30.2643 28Z" fill="black"/>
</svg>
